<mxfile host="Electron" modified="2024-02-03T02:54:28.280Z" agent="Mozilla/5.0 (Macintosh; Intel Mac OS X 10_15_7) AppleWebKit/537.36 (KHTML, like Gecko) draw.io/23.0.2 Chrome/120.0.6099.109 Electron/28.1.0 Safari/537.36" etag="y6HnQfC0kgRADo8bGigm" version="23.0.2" type="device">
  <diagram id="jvWdauJidMp9yCTGDx5s" name="第 1 页">
    <mxGraphModel dx="1272" dy="899" grid="1" gridSize="10" guides="1" tooltips="1" connect="1" arrows="1" fold="1" page="1" pageScale="1" pageWidth="827" pageHeight="1169" math="1" shadow="0">
      <root>
        <mxCell id="0" />
        <mxCell id="1" parent="0" />
        <mxCell id="x9kNU2NrX7jhpJLdXPjR-117" value="" style="group;strokeWidth=0.5;" parent="1" vertex="1" connectable="0">
          <mxGeometry x="157" y="70" width="363" height="760" as="geometry" />
        </mxCell>
        <mxCell id="x9kNU2NrX7jhpJLdXPjR-112" value="" style="group;strokeWidth=0.5;" parent="x9kNU2NrX7jhpJLdXPjR-117" vertex="1" connectable="0">
          <mxGeometry x="77.5" width="205" height="239" as="geometry" />
        </mxCell>
        <mxCell id="YBxdIGGvtzq3D0eLsTwU-1" value="&lt;font style=&quot;font-size: 20px;&quot; face=&quot;Times New Roman&quot;&gt;A&lt;/font&gt;" style="ellipse;whiteSpace=wrap;html=1;aspect=fixed;strokeWidth=0.5;" parent="x9kNU2NrX7jhpJLdXPjR-112" vertex="1">
          <mxGeometry x="3" y="10" width="40" height="40" as="geometry" />
        </mxCell>
        <mxCell id="YBxdIGGvtzq3D0eLsTwU-2" value="&lt;font style=&quot;font-size: 20px;&quot; face=&quot;Times New Roman&quot;&gt;C&lt;/font&gt;" style="ellipse;whiteSpace=wrap;html=1;aspect=fixed;strokeWidth=0.5;" parent="x9kNU2NrX7jhpJLdXPjR-112" vertex="1">
          <mxGeometry x="83" y="90" width="40" height="40" as="geometry" />
        </mxCell>
        <mxCell id="YBxdIGGvtzq3D0eLsTwU-3" value="&lt;font style=&quot;font-size: 20px;&quot; face=&quot;Times New Roman&quot;&gt;B&lt;/font&gt;" style="ellipse;whiteSpace=wrap;html=1;aspect=fixed;strokeWidth=0.5;" parent="x9kNU2NrX7jhpJLdXPjR-112" vertex="1">
          <mxGeometry x="163" y="10" width="40" height="40" as="geometry" />
        </mxCell>
        <mxCell id="YBxdIGGvtzq3D0eLsTwU-4" value="&lt;font style=&quot;font-size: 20px;&quot; face=&quot;Times New Roman&quot;&gt;D&lt;/font&gt;" style="ellipse;whiteSpace=wrap;html=1;aspect=fixed;strokeWidth=0.5;" parent="x9kNU2NrX7jhpJLdXPjR-112" vertex="1">
          <mxGeometry x="3" y="170" width="40" height="40" as="geometry" />
        </mxCell>
        <mxCell id="YBxdIGGvtzq3D0eLsTwU-5" value="&lt;font style=&quot;font-size: 20px;&quot; face=&quot;Times New Roman&quot;&gt;E&lt;/font&gt;" style="ellipse;whiteSpace=wrap;html=1;aspect=fixed;strokeWidth=0.5;" parent="x9kNU2NrX7jhpJLdXPjR-112" vertex="1">
          <mxGeometry x="163" y="170" width="40" height="40" as="geometry" />
        </mxCell>
        <mxCell id="YBxdIGGvtzq3D0eLsTwU-6" value="" style="endArrow=classic;html=1;rounded=0;strokeWidth=0.5;" parent="x9kNU2NrX7jhpJLdXPjR-112" source="YBxdIGGvtzq3D0eLsTwU-1" target="YBxdIGGvtzq3D0eLsTwU-2" edge="1">
          <mxGeometry width="50" height="50" relative="1" as="geometry">
            <mxPoint x="103" y="140" as="sourcePoint" />
            <mxPoint x="153" y="90" as="targetPoint" />
          </mxGeometry>
        </mxCell>
        <mxCell id="YBxdIGGvtzq3D0eLsTwU-7" value="" style="endArrow=classic;html=1;rounded=0;strokeWidth=0.5;" parent="x9kNU2NrX7jhpJLdXPjR-112" source="YBxdIGGvtzq3D0eLsTwU-2" target="YBxdIGGvtzq3D0eLsTwU-5" edge="1">
          <mxGeometry width="50" height="50" relative="1" as="geometry">
            <mxPoint x="103" y="140" as="sourcePoint" />
            <mxPoint x="153" y="90" as="targetPoint" />
          </mxGeometry>
        </mxCell>
        <mxCell id="YBxdIGGvtzq3D0eLsTwU-8" value="" style="endArrow=classic;html=1;rounded=0;strokeWidth=0.5;" parent="x9kNU2NrX7jhpJLdXPjR-112" source="YBxdIGGvtzq3D0eLsTwU-1" target="YBxdIGGvtzq3D0eLsTwU-4" edge="1">
          <mxGeometry width="50" height="50" relative="1" as="geometry">
            <mxPoint x="103" y="140" as="sourcePoint" />
            <mxPoint x="153" y="90" as="targetPoint" />
          </mxGeometry>
        </mxCell>
        <mxCell id="YBxdIGGvtzq3D0eLsTwU-9" value="" style="endArrow=classic;html=1;rounded=0;strokeWidth=0.5;" parent="x9kNU2NrX7jhpJLdXPjR-112" source="YBxdIGGvtzq3D0eLsTwU-4" target="YBxdIGGvtzq3D0eLsTwU-5" edge="1">
          <mxGeometry width="50" height="50" relative="1" as="geometry">
            <mxPoint x="103" y="140" as="sourcePoint" />
            <mxPoint x="153" y="90" as="targetPoint" />
          </mxGeometry>
        </mxCell>
        <mxCell id="YBxdIGGvtzq3D0eLsTwU-10" value="" style="endArrow=classic;html=1;rounded=0;strokeWidth=0.5;" parent="x9kNU2NrX7jhpJLdXPjR-112" source="YBxdIGGvtzq3D0eLsTwU-3" target="YBxdIGGvtzq3D0eLsTwU-5" edge="1">
          <mxGeometry width="50" height="50" relative="1" as="geometry">
            <mxPoint x="253" y="20" as="sourcePoint" />
            <mxPoint x="153" y="90" as="targetPoint" />
          </mxGeometry>
        </mxCell>
        <mxCell id="YBxdIGGvtzq3D0eLsTwU-11" value="" style="endArrow=classic;html=1;rounded=0;strokeWidth=0.5;" parent="x9kNU2NrX7jhpJLdXPjR-112" source="YBxdIGGvtzq3D0eLsTwU-1" target="YBxdIGGvtzq3D0eLsTwU-3" edge="1">
          <mxGeometry width="50" height="50" relative="1" as="geometry">
            <mxPoint x="103" y="140" as="sourcePoint" />
            <mxPoint x="153" y="90" as="targetPoint" />
          </mxGeometry>
        </mxCell>
        <mxCell id="YBxdIGGvtzq3D0eLsTwU-12" value="&lt;font style=&quot;font-size: 20px;&quot; face=&quot;Times New Roman&quot;&gt;2&lt;/font&gt;" style="text;html=1;align=center;verticalAlign=middle;resizable=0;points=[];autosize=1;strokeColor=none;fillColor=none;strokeWidth=0.5;" parent="x9kNU2NrX7jhpJLdXPjR-112" vertex="1">
          <mxGeometry x="127" y="115" width="30" height="40" as="geometry" />
        </mxCell>
        <mxCell id="YBxdIGGvtzq3D0eLsTwU-13" value="&lt;font style=&quot;font-size: 20px;&quot; face=&quot;Times New Roman&quot;&gt;2&lt;/font&gt;" style="text;html=1;align=center;verticalAlign=middle;resizable=0;points=[];autosize=1;strokeColor=none;fillColor=none;strokeWidth=0.5;" parent="x9kNU2NrX7jhpJLdXPjR-112" vertex="1">
          <mxGeometry x="48" y="36" width="30" height="40" as="geometry" />
        </mxCell>
        <mxCell id="YBxdIGGvtzq3D0eLsTwU-14" value="&lt;font style=&quot;font-size: 20px;&quot; face=&quot;Times New Roman&quot;&gt;4&lt;/font&gt;" style="text;html=1;align=center;verticalAlign=middle;resizable=0;points=[];autosize=1;strokeColor=none;fillColor=none;strokeWidth=0.5;" parent="x9kNU2NrX7jhpJLdXPjR-112" vertex="1">
          <mxGeometry x="87" width="30" height="40" as="geometry" />
        </mxCell>
        <mxCell id="YBxdIGGvtzq3D0eLsTwU-15" value="&lt;font style=&quot;font-size: 20px;&quot; face=&quot;Times New Roman&quot;&gt;1&lt;/font&gt;" style="text;html=1;align=center;verticalAlign=middle;resizable=0;points=[];autosize=1;strokeColor=none;fillColor=none;strokeWidth=0.5;" parent="x9kNU2NrX7jhpJLdXPjR-112" vertex="1">
          <mxGeometry y="90" width="30" height="40" as="geometry" />
        </mxCell>
        <mxCell id="YBxdIGGvtzq3D0eLsTwU-16" value="&lt;font style=&quot;font-size: 20px;&quot; face=&quot;Times New Roman&quot;&gt;1&lt;/font&gt;" style="text;html=1;align=center;verticalAlign=middle;resizable=0;points=[];autosize=1;strokeColor=none;fillColor=none;strokeWidth=0.5;" parent="x9kNU2NrX7jhpJLdXPjR-112" vertex="1">
          <mxGeometry x="175" y="90" width="30" height="40" as="geometry" />
        </mxCell>
        <mxCell id="YBxdIGGvtzq3D0eLsTwU-17" value="&lt;font style=&quot;font-size: 20px;&quot; face=&quot;Times New Roman&quot;&gt;3&lt;/font&gt;" style="text;html=1;align=center;verticalAlign=middle;resizable=0;points=[];autosize=1;strokeColor=none;fillColor=none;strokeWidth=0.5;" parent="x9kNU2NrX7jhpJLdXPjR-112" vertex="1">
          <mxGeometry x="88" y="159" width="30" height="40" as="geometry" />
        </mxCell>
        <mxCell id="YBxdIGGvtzq3D0eLsTwU-18" value="" style="endArrow=classic;html=1;rounded=0;strokeWidth=0.5;" parent="x9kNU2NrX7jhpJLdXPjR-112" source="YBxdIGGvtzq3D0eLsTwU-3" target="YBxdIGGvtzq3D0eLsTwU-2" edge="1">
          <mxGeometry width="50" height="50" relative="1" as="geometry">
            <mxPoint x="93" y="130" as="sourcePoint" />
            <mxPoint x="143" y="80" as="targetPoint" />
          </mxGeometry>
        </mxCell>
        <mxCell id="YBxdIGGvtzq3D0eLsTwU-19" value="&lt;font style=&quot;font-size: 20px;&quot; face=&quot;Times New Roman&quot;&gt;2&lt;/font&gt;" style="text;html=1;align=center;verticalAlign=middle;resizable=0;points=[];autosize=1;strokeColor=none;fillColor=none;strokeWidth=0.5;" parent="x9kNU2NrX7jhpJLdXPjR-112" vertex="1">
          <mxGeometry x="128" y="36" width="30" height="40" as="geometry" />
        </mxCell>
        <mxCell id="YBxdIGGvtzq3D0eLsTwU-20" value="" style="endArrow=classic;html=1;rounded=0;strokeWidth=0.5;" parent="x9kNU2NrX7jhpJLdXPjR-112" source="YBxdIGGvtzq3D0eLsTwU-2" target="YBxdIGGvtzq3D0eLsTwU-4" edge="1">
          <mxGeometry width="50" height="50" relative="1" as="geometry">
            <mxPoint x="179" y="54" as="sourcePoint" />
            <mxPoint x="127" y="106" as="targetPoint" />
          </mxGeometry>
        </mxCell>
        <mxCell id="YBxdIGGvtzq3D0eLsTwU-21" value="&lt;font style=&quot;font-size: 20px;&quot; face=&quot;Times New Roman&quot;&gt;1&lt;/font&gt;" style="text;html=1;align=center;verticalAlign=middle;resizable=0;points=[];autosize=1;strokeColor=none;fillColor=none;strokeWidth=0.5;" parent="x9kNU2NrX7jhpJLdXPjR-112" vertex="1">
          <mxGeometry x="48" y="115" width="30" height="40" as="geometry" />
        </mxCell>
        <mxCell id="YBxdIGGvtzq3D0eLsTwU-22" value="&lt;font style=&quot;font-size: 20px;&quot; face=&quot;Times New Roman&quot;&gt;(a) &lt;/font&gt;&lt;font data-font-src=&quot;https://fonts.googleapis.com/css?family=SimSun&quot; face=&quot;SimSun&quot; style=&quot;font-size: 20px;&quot;&gt;图&lt;/font&gt;" style="text;html=1;align=center;verticalAlign=middle;resizable=0;points=[];autosize=1;strokeColor=none;fillColor=none;strokeWidth=0.5;" parent="x9kNU2NrX7jhpJLdXPjR-112" vertex="1">
          <mxGeometry x="68" y="199" width="70" height="40" as="geometry" />
        </mxCell>
        <mxCell id="x9kNU2NrX7jhpJLdXPjR-113" value="" style="group;strokeWidth=0.5;" parent="x9kNU2NrX7jhpJLdXPjR-117" vertex="1" connectable="0">
          <mxGeometry x="3" y="250" width="360" height="120" as="geometry" />
        </mxCell>
        <mxCell id="YBxdIGGvtzq3D0eLsTwU-92" value="&lt;font face=&quot;Times New Roman&quot;&gt;&lt;span style=&quot;font-size: 20px;&quot;&gt;(b)&amp;nbsp;&lt;/span&gt;&lt;/font&gt;&lt;font style=&quot;border-color: var(--border-color); font-size: 20px;&quot; face=&quot;SimSun&quot;&gt;检查&lt;/font&gt;&lt;font style=&quot;border-color: var(--border-color); font-size: 20px;&quot; face=&quot;Times New Roman&quot;&gt;A&lt;/font&gt;" style="text;html=1;align=center;verticalAlign=middle;resizable=0;points=[];autosize=1;strokeColor=none;fillColor=none;strokeWidth=0.5;" parent="x9kNU2NrX7jhpJLdXPjR-113" vertex="1">
          <mxGeometry x="125" y="80" width="110" height="40" as="geometry" />
        </mxCell>
        <mxCell id="YBxdIGGvtzq3D0eLsTwU-23" value="" style="shape=table;startSize=0;container=1;collapsible=0;childLayout=tableLayout;fontFamily=Times New Roman;fontSize=20;strokeWidth=0.5;shadow=0;" parent="x9kNU2NrX7jhpJLdXPjR-113" vertex="1">
          <mxGeometry width="360" height="80" as="geometry" />
        </mxCell>
        <mxCell id="YBxdIGGvtzq3D0eLsTwU-24" value="" style="shape=tableRow;horizontal=0;startSize=0;swimlaneHead=0;swimlaneBody=0;strokeColor=inherit;top=0;left=0;bottom=0;right=0;collapsible=0;dropTarget=0;fillColor=none;points=[[0,0.5],[1,0.5]];portConstraint=eastwest;fontFamily=Times New Roman;fontSize=20;strokeWidth=0.5;shadow=0;" parent="YBxdIGGvtzq3D0eLsTwU-23" vertex="1">
          <mxGeometry width="360" height="40" as="geometry" />
        </mxCell>
        <mxCell id="YBxdIGGvtzq3D0eLsTwU-25" value="" style="shape=partialRectangle;html=1;whiteSpace=wrap;connectable=0;strokeColor=inherit;overflow=hidden;fillColor=none;top=0;left=0;bottom=0;right=0;pointerEvents=1;fontFamily=Times New Roman;fontSize=20;strokeWidth=0.5;shadow=0;horizontal=1;" parent="YBxdIGGvtzq3D0eLsTwU-24" vertex="1">
          <mxGeometry width="60" height="40" as="geometry">
            <mxRectangle width="60" height="40" as="alternateBounds" />
          </mxGeometry>
        </mxCell>
        <mxCell id="YBxdIGGvtzq3D0eLsTwU-26" value="A" style="shape=partialRectangle;html=1;whiteSpace=wrap;connectable=0;strokeColor=inherit;overflow=hidden;fillColor=none;top=0;left=0;bottom=0;right=0;pointerEvents=1;fontFamily=Times New Roman;fontSize=20;strokeWidth=0.5;shadow=0;" parent="YBxdIGGvtzq3D0eLsTwU-24" vertex="1">
          <mxGeometry x="60" width="60" height="40" as="geometry">
            <mxRectangle width="60" height="40" as="alternateBounds" />
          </mxGeometry>
        </mxCell>
        <mxCell id="YBxdIGGvtzq3D0eLsTwU-27" value="B" style="shape=partialRectangle;html=1;whiteSpace=wrap;connectable=0;strokeColor=inherit;overflow=hidden;fillColor=none;top=0;left=0;bottom=0;right=0;pointerEvents=1;fontFamily=Times New Roman;fontSize=20;strokeWidth=0.5;shadow=0;" parent="YBxdIGGvtzq3D0eLsTwU-24" vertex="1">
          <mxGeometry x="120" width="60" height="40" as="geometry">
            <mxRectangle width="60" height="40" as="alternateBounds" />
          </mxGeometry>
        </mxCell>
        <mxCell id="YBxdIGGvtzq3D0eLsTwU-28" value="C" style="shape=partialRectangle;html=1;whiteSpace=wrap;connectable=0;strokeColor=inherit;overflow=hidden;fillColor=none;top=0;left=0;bottom=0;right=0;pointerEvents=1;fontFamily=Times New Roman;fontSize=20;strokeWidth=0.5;shadow=0;" parent="YBxdIGGvtzq3D0eLsTwU-24" vertex="1">
          <mxGeometry x="180" width="60" height="40" as="geometry">
            <mxRectangle width="60" height="40" as="alternateBounds" />
          </mxGeometry>
        </mxCell>
        <mxCell id="YBxdIGGvtzq3D0eLsTwU-29" value="D" style="shape=partialRectangle;html=1;whiteSpace=wrap;connectable=0;strokeColor=inherit;overflow=hidden;fillColor=none;top=0;left=0;bottom=0;right=0;pointerEvents=1;fontFamily=Times New Roman;fontSize=20;strokeWidth=0.5;shadow=0;" parent="YBxdIGGvtzq3D0eLsTwU-24" vertex="1">
          <mxGeometry x="240" width="60" height="40" as="geometry">
            <mxRectangle width="60" height="40" as="alternateBounds" />
          </mxGeometry>
        </mxCell>
        <mxCell id="YBxdIGGvtzq3D0eLsTwU-30" value="E" style="shape=partialRectangle;html=1;whiteSpace=wrap;connectable=0;strokeColor=inherit;overflow=hidden;fillColor=none;top=0;left=0;bottom=0;right=0;pointerEvents=1;fontFamily=Times New Roman;fontSize=20;strokeWidth=0.5;shadow=0;" parent="YBxdIGGvtzq3D0eLsTwU-24" vertex="1">
          <mxGeometry x="300" width="60" height="40" as="geometry">
            <mxRectangle width="60" height="40" as="alternateBounds" />
          </mxGeometry>
        </mxCell>
        <mxCell id="YBxdIGGvtzq3D0eLsTwU-31" value="" style="shape=tableRow;horizontal=0;startSize=0;swimlaneHead=0;swimlaneBody=0;strokeColor=inherit;top=0;left=0;bottom=0;right=0;collapsible=0;dropTarget=0;fillColor=none;points=[[0,0.5],[1,0.5]];portConstraint=eastwest;fontFamily=Times New Roman;fontSize=20;strokeWidth=0.5;shadow=0;" parent="YBxdIGGvtzq3D0eLsTwU-23" vertex="1">
          <mxGeometry y="40" width="360" height="40" as="geometry" />
        </mxCell>
        <mxCell id="YBxdIGGvtzq3D0eLsTwU-32" value="dist" style="shape=partialRectangle;html=1;whiteSpace=wrap;connectable=0;strokeColor=inherit;overflow=hidden;fillColor=none;top=0;left=0;bottom=0;right=0;pointerEvents=1;fontFamily=Times New Roman;fontSize=20;strokeWidth=0.5;shadow=0;" parent="YBxdIGGvtzq3D0eLsTwU-31" vertex="1">
          <mxGeometry width="60" height="40" as="geometry">
            <mxRectangle width="60" height="40" as="alternateBounds" />
          </mxGeometry>
        </mxCell>
        <mxCell id="YBxdIGGvtzq3D0eLsTwU-33" value="0" style="shape=partialRectangle;html=1;whiteSpace=wrap;connectable=0;strokeColor=inherit;overflow=hidden;fillColor=none;top=0;left=0;bottom=0;right=0;pointerEvents=1;fontFamily=Times New Roman;fontSize=20;strokeWidth=0.5;shadow=0;" parent="YBxdIGGvtzq3D0eLsTwU-31" vertex="1">
          <mxGeometry x="60" width="60" height="40" as="geometry">
            <mxRectangle width="60" height="40" as="alternateBounds" />
          </mxGeometry>
        </mxCell>
        <mxCell id="YBxdIGGvtzq3D0eLsTwU-34" value="4" style="shape=partialRectangle;html=1;whiteSpace=wrap;connectable=0;strokeColor=inherit;overflow=hidden;fillColor=none;top=0;left=0;bottom=0;right=0;pointerEvents=1;fontFamily=Times New Roman;fontSize=20;strokeWidth=0.5;shadow=0;" parent="YBxdIGGvtzq3D0eLsTwU-31" vertex="1">
          <mxGeometry x="120" width="60" height="40" as="geometry">
            <mxRectangle width="60" height="40" as="alternateBounds" />
          </mxGeometry>
        </mxCell>
        <mxCell id="YBxdIGGvtzq3D0eLsTwU-35" value="2" style="shape=partialRectangle;html=1;whiteSpace=wrap;connectable=0;strokeColor=inherit;overflow=hidden;fillColor=none;top=0;left=0;bottom=0;right=0;pointerEvents=1;fontFamily=Times New Roman;fontSize=20;strokeWidth=0.5;shadow=0;" parent="YBxdIGGvtzq3D0eLsTwU-31" vertex="1">
          <mxGeometry x="180" width="60" height="40" as="geometry">
            <mxRectangle width="60" height="40" as="alternateBounds" />
          </mxGeometry>
        </mxCell>
        <mxCell id="YBxdIGGvtzq3D0eLsTwU-36" value="1" style="shape=partialRectangle;html=1;whiteSpace=wrap;connectable=0;strokeColor=inherit;overflow=hidden;fillColor=none;top=0;left=0;bottom=0;right=0;pointerEvents=1;fontFamily=Times New Roman;fontSize=20;strokeWidth=0.5;shadow=0;" parent="YBxdIGGvtzq3D0eLsTwU-31" vertex="1">
          <mxGeometry x="240" width="60" height="40" as="geometry">
            <mxRectangle width="60" height="40" as="alternateBounds" />
          </mxGeometry>
        </mxCell>
        <mxCell id="YBxdIGGvtzq3D0eLsTwU-37" value="∞" style="shape=partialRectangle;html=1;whiteSpace=wrap;connectable=0;strokeColor=inherit;overflow=hidden;fillColor=none;top=0;left=0;bottom=0;right=0;pointerEvents=1;fontFamily=Times New Roman;fontSize=20;strokeWidth=0.5;shadow=0;" parent="YBxdIGGvtzq3D0eLsTwU-31" vertex="1">
          <mxGeometry x="300" width="60" height="40" as="geometry">
            <mxRectangle width="60" height="40" as="alternateBounds" />
          </mxGeometry>
        </mxCell>
        <mxCell id="YBxdIGGvtzq3D0eLsTwU-38" value="" style="endArrow=none;html=1;rounded=0;entryX=0.168;entryY=0.006;entryDx=0;entryDy=0;entryPerimeter=0;strokeWidth=0.5;" parent="YBxdIGGvtzq3D0eLsTwU-23" target="YBxdIGGvtzq3D0eLsTwU-31" edge="1">
          <mxGeometry width="50" height="50" relative="1" as="geometry">
            <mxPoint as="sourcePoint" />
            <mxPoint x="170" y="30" as="targetPoint" />
          </mxGeometry>
        </mxCell>
        <mxCell id="x9kNU2NrX7jhpJLdXPjR-114" value="" style="group;strokeWidth=0.5;" parent="x9kNU2NrX7jhpJLdXPjR-117" vertex="1" connectable="0">
          <mxGeometry x="3" y="380" width="360" height="120" as="geometry" />
        </mxCell>
        <mxCell id="YBxdIGGvtzq3D0eLsTwU-39" value="" style="shape=table;startSize=0;container=1;collapsible=0;childLayout=tableLayout;fontFamily=Times New Roman;fontSize=20;strokeWidth=0.5;shadow=0;" parent="x9kNU2NrX7jhpJLdXPjR-114" vertex="1">
          <mxGeometry width="360" height="80" as="geometry" />
        </mxCell>
        <mxCell id="YBxdIGGvtzq3D0eLsTwU-40" value="" style="shape=tableRow;horizontal=0;startSize=0;swimlaneHead=0;swimlaneBody=0;strokeColor=inherit;top=0;left=0;bottom=0;right=0;collapsible=0;dropTarget=0;fillColor=none;points=[[0,0.5],[1,0.5]];portConstraint=eastwest;fontFamily=Times New Roman;fontSize=20;strokeWidth=0.5;shadow=0;" parent="YBxdIGGvtzq3D0eLsTwU-39" vertex="1">
          <mxGeometry width="360" height="40" as="geometry" />
        </mxCell>
        <mxCell id="YBxdIGGvtzq3D0eLsTwU-41" value="" style="shape=partialRectangle;html=1;whiteSpace=wrap;connectable=0;strokeColor=inherit;overflow=hidden;fillColor=none;top=0;left=0;bottom=0;right=0;pointerEvents=1;fontFamily=Times New Roman;fontSize=20;strokeWidth=0.5;shadow=0;horizontal=1;" parent="YBxdIGGvtzq3D0eLsTwU-40" vertex="1">
          <mxGeometry width="60" height="40" as="geometry">
            <mxRectangle width="60" height="40" as="alternateBounds" />
          </mxGeometry>
        </mxCell>
        <mxCell id="YBxdIGGvtzq3D0eLsTwU-42" value="A" style="shape=partialRectangle;html=1;whiteSpace=wrap;connectable=0;strokeColor=inherit;overflow=hidden;fillColor=none;top=0;left=0;bottom=0;right=0;pointerEvents=1;fontFamily=Times New Roman;fontSize=20;strokeWidth=0.5;shadow=0;" parent="YBxdIGGvtzq3D0eLsTwU-40" vertex="1">
          <mxGeometry x="60" width="60" height="40" as="geometry">
            <mxRectangle width="60" height="40" as="alternateBounds" />
          </mxGeometry>
        </mxCell>
        <mxCell id="YBxdIGGvtzq3D0eLsTwU-43" value="B" style="shape=partialRectangle;html=1;whiteSpace=wrap;connectable=0;strokeColor=inherit;overflow=hidden;fillColor=none;top=0;left=0;bottom=0;right=0;pointerEvents=1;fontFamily=Times New Roman;fontSize=20;strokeWidth=0.5;shadow=0;" parent="YBxdIGGvtzq3D0eLsTwU-40" vertex="1">
          <mxGeometry x="120" width="60" height="40" as="geometry">
            <mxRectangle width="60" height="40" as="alternateBounds" />
          </mxGeometry>
        </mxCell>
        <mxCell id="YBxdIGGvtzq3D0eLsTwU-44" value="C" style="shape=partialRectangle;html=1;whiteSpace=wrap;connectable=0;strokeColor=inherit;overflow=hidden;fillColor=none;top=0;left=0;bottom=0;right=0;pointerEvents=1;fontFamily=Times New Roman;fontSize=20;strokeWidth=0.5;shadow=0;" parent="YBxdIGGvtzq3D0eLsTwU-40" vertex="1">
          <mxGeometry x="180" width="60" height="40" as="geometry">
            <mxRectangle width="60" height="40" as="alternateBounds" />
          </mxGeometry>
        </mxCell>
        <mxCell id="YBxdIGGvtzq3D0eLsTwU-45" value="D" style="shape=partialRectangle;html=1;whiteSpace=wrap;connectable=0;strokeColor=inherit;overflow=hidden;fillColor=none;top=0;left=0;bottom=0;right=0;pointerEvents=1;fontFamily=Times New Roman;fontSize=20;strokeWidth=0.5;shadow=0;" parent="YBxdIGGvtzq3D0eLsTwU-40" vertex="1">
          <mxGeometry x="240" width="60" height="40" as="geometry">
            <mxRectangle width="60" height="40" as="alternateBounds" />
          </mxGeometry>
        </mxCell>
        <mxCell id="YBxdIGGvtzq3D0eLsTwU-46" value="E" style="shape=partialRectangle;html=1;whiteSpace=wrap;connectable=0;strokeColor=inherit;overflow=hidden;fillColor=none;top=0;left=0;bottom=0;right=0;pointerEvents=1;fontFamily=Times New Roman;fontSize=20;strokeWidth=0.5;shadow=0;" parent="YBxdIGGvtzq3D0eLsTwU-40" vertex="1">
          <mxGeometry x="300" width="60" height="40" as="geometry">
            <mxRectangle width="60" height="40" as="alternateBounds" />
          </mxGeometry>
        </mxCell>
        <mxCell id="YBxdIGGvtzq3D0eLsTwU-47" value="" style="shape=tableRow;horizontal=0;startSize=0;swimlaneHead=0;swimlaneBody=0;strokeColor=inherit;top=0;left=0;bottom=0;right=0;collapsible=0;dropTarget=0;fillColor=none;points=[[0,0.5],[1,0.5]];portConstraint=eastwest;fontFamily=Times New Roman;fontSize=20;strokeWidth=0.5;shadow=0;" parent="YBxdIGGvtzq3D0eLsTwU-39" vertex="1">
          <mxGeometry y="40" width="360" height="40" as="geometry" />
        </mxCell>
        <mxCell id="YBxdIGGvtzq3D0eLsTwU-48" value="dist" style="shape=partialRectangle;html=1;whiteSpace=wrap;connectable=0;strokeColor=inherit;overflow=hidden;fillColor=none;top=0;left=0;bottom=0;right=0;pointerEvents=1;fontFamily=Times New Roman;fontSize=20;strokeWidth=0.5;shadow=0;" parent="YBxdIGGvtzq3D0eLsTwU-47" vertex="1">
          <mxGeometry width="60" height="40" as="geometry">
            <mxRectangle width="60" height="40" as="alternateBounds" />
          </mxGeometry>
        </mxCell>
        <mxCell id="YBxdIGGvtzq3D0eLsTwU-49" value="0" style="shape=partialRectangle;html=1;whiteSpace=wrap;connectable=0;strokeColor=inherit;overflow=hidden;fillColor=none;top=0;left=0;bottom=0;right=0;pointerEvents=1;fontFamily=Times New Roman;fontSize=20;strokeWidth=0.5;shadow=0;" parent="YBxdIGGvtzq3D0eLsTwU-47" vertex="1">
          <mxGeometry x="60" width="60" height="40" as="geometry">
            <mxRectangle width="60" height="40" as="alternateBounds" />
          </mxGeometry>
        </mxCell>
        <mxCell id="YBxdIGGvtzq3D0eLsTwU-50" value="4" style="shape=partialRectangle;html=1;whiteSpace=wrap;connectable=0;strokeColor=inherit;overflow=hidden;fillColor=none;top=0;left=0;bottom=0;right=0;pointerEvents=1;fontFamily=Times New Roman;fontSize=20;strokeWidth=0.5;shadow=0;" parent="YBxdIGGvtzq3D0eLsTwU-47" vertex="1">
          <mxGeometry x="120" width="60" height="40" as="geometry">
            <mxRectangle width="60" height="40" as="alternateBounds" />
          </mxGeometry>
        </mxCell>
        <mxCell id="YBxdIGGvtzq3D0eLsTwU-51" value="2" style="shape=partialRectangle;html=1;whiteSpace=wrap;connectable=0;strokeColor=inherit;overflow=hidden;fillColor=none;top=0;left=0;bottom=0;right=0;pointerEvents=1;fontFamily=Times New Roman;fontSize=20;strokeWidth=0.5;shadow=0;" parent="YBxdIGGvtzq3D0eLsTwU-47" vertex="1">
          <mxGeometry x="180" width="60" height="40" as="geometry">
            <mxRectangle width="60" height="40" as="alternateBounds" />
          </mxGeometry>
        </mxCell>
        <mxCell id="YBxdIGGvtzq3D0eLsTwU-52" value="1" style="shape=partialRectangle;html=1;whiteSpace=wrap;connectable=0;strokeColor=inherit;overflow=hidden;fillColor=none;top=0;left=0;bottom=0;right=0;pointerEvents=1;fontFamily=Times New Roman;fontSize=20;strokeWidth=0.5;shadow=0;" parent="YBxdIGGvtzq3D0eLsTwU-47" vertex="1">
          <mxGeometry x="240" width="60" height="40" as="geometry">
            <mxRectangle width="60" height="40" as="alternateBounds" />
          </mxGeometry>
        </mxCell>
        <mxCell id="YBxdIGGvtzq3D0eLsTwU-53" value="5" style="shape=partialRectangle;html=1;whiteSpace=wrap;connectable=0;strokeColor=inherit;overflow=hidden;fillColor=none;top=0;left=0;bottom=0;right=0;pointerEvents=1;fontFamily=Times New Roman;fontSize=20;strokeWidth=0.5;shadow=0;" parent="YBxdIGGvtzq3D0eLsTwU-47" vertex="1">
          <mxGeometry x="300" width="60" height="40" as="geometry">
            <mxRectangle width="60" height="40" as="alternateBounds" />
          </mxGeometry>
        </mxCell>
        <mxCell id="YBxdIGGvtzq3D0eLsTwU-54" value="" style="endArrow=none;html=1;rounded=0;entryX=0.168;entryY=0.006;entryDx=0;entryDy=0;entryPerimeter=0;strokeWidth=0.5;" parent="YBxdIGGvtzq3D0eLsTwU-39" target="YBxdIGGvtzq3D0eLsTwU-47" edge="1">
          <mxGeometry width="50" height="50" relative="1" as="geometry">
            <mxPoint as="sourcePoint" />
            <mxPoint x="170" y="30" as="targetPoint" />
          </mxGeometry>
        </mxCell>
        <mxCell id="YBxdIGGvtzq3D0eLsTwU-93" value="&lt;font face=&quot;Times New Roman&quot;&gt;&lt;span style=&quot;font-size: 20px;&quot;&gt;(c)&amp;nbsp;&lt;/span&gt;&lt;/font&gt;&lt;font style=&quot;border-color: var(--border-color); font-size: 20px;&quot; face=&quot;SimSun&quot;&gt;检查&lt;/font&gt;&lt;font style=&quot;border-color: var(--border-color); font-size: 20px;&quot; face=&quot;Times New Roman&quot;&gt;B&lt;/font&gt;" style="text;html=1;align=center;verticalAlign=middle;resizable=0;points=[];autosize=1;strokeColor=none;fillColor=none;strokeWidth=0.5;" parent="x9kNU2NrX7jhpJLdXPjR-114" vertex="1">
          <mxGeometry x="130" y="80" width="100" height="40" as="geometry" />
        </mxCell>
        <mxCell id="x9kNU2NrX7jhpJLdXPjR-115" value="" style="group;strokeWidth=0.5;" parent="x9kNU2NrX7jhpJLdXPjR-117" vertex="1" connectable="0">
          <mxGeometry y="510" width="360" height="120" as="geometry" />
        </mxCell>
        <mxCell id="YBxdIGGvtzq3D0eLsTwU-55" value="" style="shape=table;startSize=0;container=1;collapsible=0;childLayout=tableLayout;fontFamily=Times New Roman;fontSize=20;strokeWidth=0.5;shadow=0;" parent="x9kNU2NrX7jhpJLdXPjR-115" vertex="1">
          <mxGeometry width="360" height="80" as="geometry" />
        </mxCell>
        <mxCell id="YBxdIGGvtzq3D0eLsTwU-56" value="" style="shape=tableRow;horizontal=0;startSize=0;swimlaneHead=0;swimlaneBody=0;strokeColor=inherit;top=0;left=0;bottom=0;right=0;collapsible=0;dropTarget=0;fillColor=none;points=[[0,0.5],[1,0.5]];portConstraint=eastwest;fontFamily=Times New Roman;fontSize=20;strokeWidth=0.5;shadow=0;" parent="YBxdIGGvtzq3D0eLsTwU-55" vertex="1">
          <mxGeometry width="360" height="40" as="geometry" />
        </mxCell>
        <mxCell id="YBxdIGGvtzq3D0eLsTwU-57" value="" style="shape=partialRectangle;html=1;whiteSpace=wrap;connectable=0;strokeColor=inherit;overflow=hidden;fillColor=none;top=0;left=0;bottom=0;right=0;pointerEvents=1;fontFamily=Times New Roman;fontSize=20;strokeWidth=0.5;shadow=0;horizontal=1;" parent="YBxdIGGvtzq3D0eLsTwU-56" vertex="1">
          <mxGeometry width="60" height="40" as="geometry">
            <mxRectangle width="60" height="40" as="alternateBounds" />
          </mxGeometry>
        </mxCell>
        <mxCell id="YBxdIGGvtzq3D0eLsTwU-58" value="A" style="shape=partialRectangle;html=1;whiteSpace=wrap;connectable=0;strokeColor=inherit;overflow=hidden;fillColor=none;top=0;left=0;bottom=0;right=0;pointerEvents=1;fontFamily=Times New Roman;fontSize=20;strokeWidth=0.5;shadow=0;" parent="YBxdIGGvtzq3D0eLsTwU-56" vertex="1">
          <mxGeometry x="60" width="60" height="40" as="geometry">
            <mxRectangle width="60" height="40" as="alternateBounds" />
          </mxGeometry>
        </mxCell>
        <mxCell id="YBxdIGGvtzq3D0eLsTwU-59" value="B" style="shape=partialRectangle;html=1;whiteSpace=wrap;connectable=0;strokeColor=inherit;overflow=hidden;fillColor=none;top=0;left=0;bottom=0;right=0;pointerEvents=1;fontFamily=Times New Roman;fontSize=20;strokeWidth=0.5;shadow=0;" parent="YBxdIGGvtzq3D0eLsTwU-56" vertex="1">
          <mxGeometry x="120" width="60" height="40" as="geometry">
            <mxRectangle width="60" height="40" as="alternateBounds" />
          </mxGeometry>
        </mxCell>
        <mxCell id="YBxdIGGvtzq3D0eLsTwU-60" value="C" style="shape=partialRectangle;html=1;whiteSpace=wrap;connectable=0;strokeColor=inherit;overflow=hidden;fillColor=none;top=0;left=0;bottom=0;right=0;pointerEvents=1;fontFamily=Times New Roman;fontSize=20;strokeWidth=0.5;shadow=0;" parent="YBxdIGGvtzq3D0eLsTwU-56" vertex="1">
          <mxGeometry x="180" width="60" height="40" as="geometry">
            <mxRectangle width="60" height="40" as="alternateBounds" />
          </mxGeometry>
        </mxCell>
        <mxCell id="YBxdIGGvtzq3D0eLsTwU-61" value="D" style="shape=partialRectangle;html=1;whiteSpace=wrap;connectable=0;strokeColor=inherit;overflow=hidden;fillColor=none;top=0;left=0;bottom=0;right=0;pointerEvents=1;fontFamily=Times New Roman;fontSize=20;strokeWidth=0.5;shadow=0;" parent="YBxdIGGvtzq3D0eLsTwU-56" vertex="1">
          <mxGeometry x="240" width="60" height="40" as="geometry">
            <mxRectangle width="60" height="40" as="alternateBounds" />
          </mxGeometry>
        </mxCell>
        <mxCell id="YBxdIGGvtzq3D0eLsTwU-62" value="E" style="shape=partialRectangle;html=1;whiteSpace=wrap;connectable=0;strokeColor=inherit;overflow=hidden;fillColor=none;top=0;left=0;bottom=0;right=0;pointerEvents=1;fontFamily=Times New Roman;fontSize=20;strokeWidth=0.5;shadow=0;" parent="YBxdIGGvtzq3D0eLsTwU-56" vertex="1">
          <mxGeometry x="300" width="60" height="40" as="geometry">
            <mxRectangle width="60" height="40" as="alternateBounds" />
          </mxGeometry>
        </mxCell>
        <mxCell id="YBxdIGGvtzq3D0eLsTwU-63" value="" style="shape=tableRow;horizontal=0;startSize=0;swimlaneHead=0;swimlaneBody=0;strokeColor=inherit;top=0;left=0;bottom=0;right=0;collapsible=0;dropTarget=0;fillColor=none;points=[[0,0.5],[1,0.5]];portConstraint=eastwest;fontFamily=Times New Roman;fontSize=20;strokeWidth=0.5;shadow=0;" parent="YBxdIGGvtzq3D0eLsTwU-55" vertex="1">
          <mxGeometry y="40" width="360" height="40" as="geometry" />
        </mxCell>
        <mxCell id="YBxdIGGvtzq3D0eLsTwU-64" value="dist" style="shape=partialRectangle;html=1;whiteSpace=wrap;connectable=0;strokeColor=inherit;overflow=hidden;fillColor=none;top=0;left=0;bottom=0;right=0;pointerEvents=1;fontFamily=Times New Roman;fontSize=20;strokeWidth=0.5;shadow=0;" parent="YBxdIGGvtzq3D0eLsTwU-63" vertex="1">
          <mxGeometry width="60" height="40" as="geometry">
            <mxRectangle width="60" height="40" as="alternateBounds" />
          </mxGeometry>
        </mxCell>
        <mxCell id="YBxdIGGvtzq3D0eLsTwU-65" value="0" style="shape=partialRectangle;html=1;whiteSpace=wrap;connectable=0;strokeColor=inherit;overflow=hidden;fillColor=none;top=0;left=0;bottom=0;right=0;pointerEvents=1;fontFamily=Times New Roman;fontSize=20;strokeWidth=0.5;shadow=0;" parent="YBxdIGGvtzq3D0eLsTwU-63" vertex="1">
          <mxGeometry x="60" width="60" height="40" as="geometry">
            <mxRectangle width="60" height="40" as="alternateBounds" />
          </mxGeometry>
        </mxCell>
        <mxCell id="YBxdIGGvtzq3D0eLsTwU-66" value="4" style="shape=partialRectangle;html=1;whiteSpace=wrap;connectable=0;strokeColor=inherit;overflow=hidden;fillColor=none;top=0;left=0;bottom=0;right=0;pointerEvents=1;fontFamily=Times New Roman;fontSize=20;strokeWidth=0.5;shadow=0;" parent="YBxdIGGvtzq3D0eLsTwU-63" vertex="1">
          <mxGeometry x="120" width="60" height="40" as="geometry">
            <mxRectangle width="60" height="40" as="alternateBounds" />
          </mxGeometry>
        </mxCell>
        <mxCell id="YBxdIGGvtzq3D0eLsTwU-67" value="2" style="shape=partialRectangle;html=1;whiteSpace=wrap;connectable=0;strokeColor=inherit;overflow=hidden;fillColor=none;top=0;left=0;bottom=0;right=0;pointerEvents=1;fontFamily=Times New Roman;fontSize=20;strokeWidth=0.5;shadow=0;" parent="YBxdIGGvtzq3D0eLsTwU-63" vertex="1">
          <mxGeometry x="180" width="60" height="40" as="geometry">
            <mxRectangle width="60" height="40" as="alternateBounds" />
          </mxGeometry>
        </mxCell>
        <mxCell id="YBxdIGGvtzq3D0eLsTwU-68" value="1" style="shape=partialRectangle;html=1;whiteSpace=wrap;connectable=0;strokeColor=inherit;overflow=hidden;fillColor=none;top=0;left=0;bottom=0;right=0;pointerEvents=1;fontFamily=Times New Roman;fontSize=20;strokeWidth=0.5;shadow=0;" parent="YBxdIGGvtzq3D0eLsTwU-63" vertex="1">
          <mxGeometry x="240" width="60" height="40" as="geometry">
            <mxRectangle width="60" height="40" as="alternateBounds" />
          </mxGeometry>
        </mxCell>
        <mxCell id="YBxdIGGvtzq3D0eLsTwU-69" value="4" style="shape=partialRectangle;html=1;whiteSpace=wrap;connectable=0;strokeColor=inherit;overflow=hidden;fillColor=none;top=0;left=0;bottom=0;right=0;pointerEvents=1;fontFamily=Times New Roman;fontSize=20;strokeWidth=0.5;shadow=0;" parent="YBxdIGGvtzq3D0eLsTwU-63" vertex="1">
          <mxGeometry x="300" width="60" height="40" as="geometry">
            <mxRectangle width="60" height="40" as="alternateBounds" />
          </mxGeometry>
        </mxCell>
        <mxCell id="YBxdIGGvtzq3D0eLsTwU-70" value="" style="endArrow=none;html=1;rounded=0;entryX=0.168;entryY=0.006;entryDx=0;entryDy=0;entryPerimeter=0;strokeWidth=0.5;" parent="YBxdIGGvtzq3D0eLsTwU-55" target="YBxdIGGvtzq3D0eLsTwU-63" edge="1">
          <mxGeometry width="50" height="50" relative="1" as="geometry">
            <mxPoint as="sourcePoint" />
            <mxPoint x="170" y="30" as="targetPoint" />
          </mxGeometry>
        </mxCell>
        <mxCell id="YBxdIGGvtzq3D0eLsTwU-94" value="&lt;font face=&quot;Times New Roman&quot;&gt;&lt;span style=&quot;font-size: 20px;&quot;&gt;(d)&amp;nbsp;&lt;/span&gt;&lt;/font&gt;&lt;font style=&quot;border-color: var(--border-color); font-size: 20px;&quot; face=&quot;SimSun&quot;&gt;检查&lt;/font&gt;&lt;font style=&quot;border-color: var(--border-color); font-size: 20px;&quot; face=&quot;Times New Roman&quot;&gt;C&lt;/font&gt;" style="text;html=1;align=center;verticalAlign=middle;resizable=0;points=[];autosize=1;strokeColor=none;fillColor=none;strokeWidth=0.5;" parent="x9kNU2NrX7jhpJLdXPjR-115" vertex="1">
          <mxGeometry x="125" y="80" width="110" height="40" as="geometry" />
        </mxCell>
        <mxCell id="x9kNU2NrX7jhpJLdXPjR-116" value="" style="group;strokeWidth=0.5;" parent="x9kNU2NrX7jhpJLdXPjR-117" vertex="1" connectable="0">
          <mxGeometry y="640" width="360" height="120" as="geometry" />
        </mxCell>
        <mxCell id="YBxdIGGvtzq3D0eLsTwU-71" value="" style="shape=table;startSize=0;container=1;collapsible=0;childLayout=tableLayout;fontFamily=Times New Roman;fontSize=20;strokeWidth=0.5;shadow=0;" parent="x9kNU2NrX7jhpJLdXPjR-116" vertex="1">
          <mxGeometry width="360" height="80" as="geometry" />
        </mxCell>
        <mxCell id="YBxdIGGvtzq3D0eLsTwU-72" value="" style="shape=tableRow;horizontal=0;startSize=0;swimlaneHead=0;swimlaneBody=0;strokeColor=inherit;top=0;left=0;bottom=0;right=0;collapsible=0;dropTarget=0;fillColor=none;points=[[0,0.5],[1,0.5]];portConstraint=eastwest;fontFamily=Times New Roman;fontSize=20;strokeWidth=0.5;shadow=0;" parent="YBxdIGGvtzq3D0eLsTwU-71" vertex="1">
          <mxGeometry width="360" height="40" as="geometry" />
        </mxCell>
        <mxCell id="YBxdIGGvtzq3D0eLsTwU-73" value="" style="shape=partialRectangle;html=1;whiteSpace=wrap;connectable=0;strokeColor=inherit;overflow=hidden;fillColor=none;top=0;left=0;bottom=0;right=0;pointerEvents=1;fontFamily=Times New Roman;fontSize=20;strokeWidth=0.5;shadow=0;horizontal=1;" parent="YBxdIGGvtzq3D0eLsTwU-72" vertex="1">
          <mxGeometry width="60" height="40" as="geometry">
            <mxRectangle width="60" height="40" as="alternateBounds" />
          </mxGeometry>
        </mxCell>
        <mxCell id="YBxdIGGvtzq3D0eLsTwU-74" value="A" style="shape=partialRectangle;html=1;whiteSpace=wrap;connectable=0;strokeColor=inherit;overflow=hidden;fillColor=none;top=0;left=0;bottom=0;right=0;pointerEvents=1;fontFamily=Times New Roman;fontSize=20;strokeWidth=0.5;shadow=0;" parent="YBxdIGGvtzq3D0eLsTwU-72" vertex="1">
          <mxGeometry x="60" width="60" height="40" as="geometry">
            <mxRectangle width="60" height="40" as="alternateBounds" />
          </mxGeometry>
        </mxCell>
        <mxCell id="YBxdIGGvtzq3D0eLsTwU-75" value="B" style="shape=partialRectangle;html=1;whiteSpace=wrap;connectable=0;strokeColor=inherit;overflow=hidden;fillColor=none;top=0;left=0;bottom=0;right=0;pointerEvents=1;fontFamily=Times New Roman;fontSize=20;strokeWidth=0.5;shadow=0;" parent="YBxdIGGvtzq3D0eLsTwU-72" vertex="1">
          <mxGeometry x="120" width="60" height="40" as="geometry">
            <mxRectangle width="60" height="40" as="alternateBounds" />
          </mxGeometry>
        </mxCell>
        <mxCell id="YBxdIGGvtzq3D0eLsTwU-76" value="C" style="shape=partialRectangle;html=1;whiteSpace=wrap;connectable=0;strokeColor=inherit;overflow=hidden;fillColor=none;top=0;left=0;bottom=0;right=0;pointerEvents=1;fontFamily=Times New Roman;fontSize=20;strokeWidth=0.5;shadow=0;" parent="YBxdIGGvtzq3D0eLsTwU-72" vertex="1">
          <mxGeometry x="180" width="60" height="40" as="geometry">
            <mxRectangle width="60" height="40" as="alternateBounds" />
          </mxGeometry>
        </mxCell>
        <mxCell id="YBxdIGGvtzq3D0eLsTwU-77" value="D" style="shape=partialRectangle;html=1;whiteSpace=wrap;connectable=0;strokeColor=inherit;overflow=hidden;fillColor=none;top=0;left=0;bottom=0;right=0;pointerEvents=1;fontFamily=Times New Roman;fontSize=20;strokeWidth=0.5;shadow=0;" parent="YBxdIGGvtzq3D0eLsTwU-72" vertex="1">
          <mxGeometry x="240" width="60" height="40" as="geometry">
            <mxRectangle width="60" height="40" as="alternateBounds" />
          </mxGeometry>
        </mxCell>
        <mxCell id="YBxdIGGvtzq3D0eLsTwU-78" value="E" style="shape=partialRectangle;html=1;whiteSpace=wrap;connectable=0;strokeColor=inherit;overflow=hidden;fillColor=none;top=0;left=0;bottom=0;right=0;pointerEvents=1;fontFamily=Times New Roman;fontSize=20;strokeWidth=0.5;shadow=0;" parent="YBxdIGGvtzq3D0eLsTwU-72" vertex="1">
          <mxGeometry x="300" width="60" height="40" as="geometry">
            <mxRectangle width="60" height="40" as="alternateBounds" />
          </mxGeometry>
        </mxCell>
        <mxCell id="YBxdIGGvtzq3D0eLsTwU-79" value="" style="shape=tableRow;horizontal=0;startSize=0;swimlaneHead=0;swimlaneBody=0;strokeColor=inherit;top=0;left=0;bottom=0;right=0;collapsible=0;dropTarget=0;fillColor=none;points=[[0,0.5],[1,0.5]];portConstraint=eastwest;fontFamily=Times New Roman;fontSize=20;strokeWidth=0.5;shadow=0;" parent="YBxdIGGvtzq3D0eLsTwU-71" vertex="1">
          <mxGeometry y="40" width="360" height="40" as="geometry" />
        </mxCell>
        <mxCell id="YBxdIGGvtzq3D0eLsTwU-80" value="dist" style="shape=partialRectangle;html=1;whiteSpace=wrap;connectable=0;strokeColor=inherit;overflow=hidden;fillColor=none;top=0;left=0;bottom=0;right=0;pointerEvents=1;fontFamily=Times New Roman;fontSize=20;strokeWidth=0.5;shadow=0;" parent="YBxdIGGvtzq3D0eLsTwU-79" vertex="1">
          <mxGeometry width="60" height="40" as="geometry">
            <mxRectangle width="60" height="40" as="alternateBounds" />
          </mxGeometry>
        </mxCell>
        <mxCell id="YBxdIGGvtzq3D0eLsTwU-81" value="0" style="shape=partialRectangle;html=1;whiteSpace=wrap;connectable=0;strokeColor=inherit;overflow=hidden;fillColor=none;top=0;left=0;bottom=0;right=0;pointerEvents=1;fontFamily=Times New Roman;fontSize=20;strokeWidth=0.5;shadow=0;" parent="YBxdIGGvtzq3D0eLsTwU-79" vertex="1">
          <mxGeometry x="60" width="60" height="40" as="geometry">
            <mxRectangle width="60" height="40" as="alternateBounds" />
          </mxGeometry>
        </mxCell>
        <mxCell id="YBxdIGGvtzq3D0eLsTwU-82" value="4" style="shape=partialRectangle;html=1;whiteSpace=wrap;connectable=0;strokeColor=inherit;overflow=hidden;fillColor=none;top=0;left=0;bottom=0;right=0;pointerEvents=1;fontFamily=Times New Roman;fontSize=20;strokeWidth=0.5;shadow=0;" parent="YBxdIGGvtzq3D0eLsTwU-79" vertex="1">
          <mxGeometry x="120" width="60" height="40" as="geometry">
            <mxRectangle width="60" height="40" as="alternateBounds" />
          </mxGeometry>
        </mxCell>
        <mxCell id="YBxdIGGvtzq3D0eLsTwU-83" value="2" style="shape=partialRectangle;html=1;whiteSpace=wrap;connectable=0;strokeColor=inherit;overflow=hidden;fillColor=none;top=0;left=0;bottom=0;right=0;pointerEvents=1;fontFamily=Times New Roman;fontSize=20;strokeWidth=0.5;shadow=0;" parent="YBxdIGGvtzq3D0eLsTwU-79" vertex="1">
          <mxGeometry x="180" width="60" height="40" as="geometry">
            <mxRectangle width="60" height="40" as="alternateBounds" />
          </mxGeometry>
        </mxCell>
        <mxCell id="YBxdIGGvtzq3D0eLsTwU-84" value="1" style="shape=partialRectangle;html=1;whiteSpace=wrap;connectable=0;strokeColor=inherit;overflow=hidden;fillColor=none;top=0;left=0;bottom=0;right=0;pointerEvents=1;fontFamily=Times New Roman;fontSize=20;strokeWidth=0.5;shadow=0;" parent="YBxdIGGvtzq3D0eLsTwU-79" vertex="1">
          <mxGeometry x="240" width="60" height="40" as="geometry">
            <mxRectangle width="60" height="40" as="alternateBounds" />
          </mxGeometry>
        </mxCell>
        <mxCell id="YBxdIGGvtzq3D0eLsTwU-85" value="4" style="shape=partialRectangle;html=1;whiteSpace=wrap;connectable=0;strokeColor=inherit;overflow=hidden;fillColor=none;top=0;left=0;bottom=0;right=0;pointerEvents=1;fontFamily=Times New Roman;fontSize=20;strokeWidth=0.5;shadow=0;" parent="YBxdIGGvtzq3D0eLsTwU-79" vertex="1">
          <mxGeometry x="300" width="60" height="40" as="geometry">
            <mxRectangle width="60" height="40" as="alternateBounds" />
          </mxGeometry>
        </mxCell>
        <mxCell id="YBxdIGGvtzq3D0eLsTwU-86" value="" style="endArrow=none;html=1;rounded=0;entryX=0.168;entryY=0.006;entryDx=0;entryDy=0;entryPerimeter=0;strokeWidth=0.5;" parent="YBxdIGGvtzq3D0eLsTwU-71" target="YBxdIGGvtzq3D0eLsTwU-79" edge="1">
          <mxGeometry width="50" height="50" relative="1" as="geometry">
            <mxPoint as="sourcePoint" />
            <mxPoint x="170" y="30" as="targetPoint" />
          </mxGeometry>
        </mxCell>
        <mxCell id="YBxdIGGvtzq3D0eLsTwU-95" value="&lt;font face=&quot;Times New Roman&quot;&gt;&lt;span style=&quot;font-size: 20px;&quot;&gt;(e)&amp;nbsp;&lt;/span&gt;&lt;/font&gt;&lt;font style=&quot;border-color: var(--border-color); font-size: 20px;&quot; face=&quot;SimSun&quot;&gt;检查&lt;/font&gt;&lt;font style=&quot;border-color: var(--border-color); font-size: 20px;&quot; face=&quot;Times New Roman&quot;&gt;D&lt;/font&gt;" style="text;html=1;align=center;verticalAlign=middle;resizable=0;points=[];autosize=1;strokeColor=none;fillColor=none;strokeWidth=0.5;" parent="x9kNU2NrX7jhpJLdXPjR-116" vertex="1">
          <mxGeometry x="128" y="80" width="110" height="40" as="geometry" />
        </mxCell>
      </root>
    </mxGraphModel>
  </diagram>
</mxfile>
